<svg xmlns="http://www.w3.org/2000/svg" width="608.353" height="593.682" viewBox="0 0 608.353 593.682">
  <g id="god_image" transform="translate(130.985 0) rotate(16)">
    <g id="Group_1" data-name="Group 1" transform="translate(0 0)">
      <path id="Path_6" data-name="Path 6" d="M443.773.22c-1.586.482-3.33,3.537-4.441,8.683-1.11,4.341-2.221,7.879-2.538,7.879-.159,0-2.221-.8-4.441-1.768-3.172-1.447-4.6-1.447-6.5.16-3.806,3.216-2.855,7.557,3.331,14.472,4.6,5.145,5.551,7.235,4.758,10.452-.793,2.895,0,5.628,2.221,8.844,5.551,7.879,3.965,17.526-3.014,17.848-2.7.161-3.172.483-1.269.965,1.427.321,2.7,1.286,2.7,1.929,0,1.93-3.648,4.985-6.027,4.985-1.269,0-4.282,1.769-6.979,4.02-8.247,7.075-8.723,4.181-.476-3.537,4.441-4.02,6.344-6.432,4.6-5.467-4.282,2.09-21.57,18.009-20.777,18.974.317.322,2.7-.161,5.076-1.125,5.868-2.251,7.137-.482,2.379,3.216-2.22,1.769-3.014,3.216-1.9,3.216s4.124-2.412,6.5-5.306a46.049,46.049,0,0,1,9.358-7.879l4.6-2.734-.793,4.02c-.476,2.894-2.538,4.985-6.82,6.914-3.49,1.608-5.71,3.376-5.234,3.859.635.643.159,2.412-1.11,3.859-2.062,2.573-1.9,2.734.635.643,2.062-1.608,3.331-1.769,4.6-.482,3.014,3.055,0,6.432-13.481,15.436-7.3,4.663-15.226,11.095-17.446,14.15-5.71,7.557-10.627,18.974-10.468,24.6,0,4.181.317,3.859,2.062-2.412,1.11-4.02,2.855-9,3.648-11.256,3.172-7.557,14.909-19.3,25.377-25.084,5.868-3.377,11.578-8.04,13.323-10.934l3.013-4.984v6.914c0,4.181.634,6.593,1.586,5.95.951-.483,1.586-2.573,1.586-4.5,0-7.4,2.538-8.522,8.565-3.859,4.917,3.859,5.393,4.824,4.124,9-3.014,10.612-25.06,41.807-42.823,60.459L389.055,183.2l-2.538,13.346c-3.172,17.044-7.137,24.923-17.446,34.571l-8.247,7.718,7.613-4.342c4.124-2.251,7.93-3.859,8.406-3.377,1.745,1.769-9.675,9.165-24.108,15.6-8.723,3.7-17.446,8.361-19.35,10.291l-3.806,3.377-3.172-3.859c-1.586-2.251-2.7-5.306-2.379-6.914.952-3.7-1.9-5.628-3.806-2.734a44.391,44.391,0,0,0-3.172,8.683c-2.538,9.326-13.164,23.476-34.576,46.47-4.917,5.145-7.454,8.683-5.71,7.718,3.172-1.608,12.688-11.417,26.011-26.853,5.234-6.11,6.661-7.075,5.71-4.02-2.22,7.718-12.212,26.531-16.336,31.033-3.806,4.02-4.917,4.342-15.226,4.02-9.2-.482-11.261,0-10.943,1.93.159,1.447-7.771,7.4-21.57,16.079-25.059,15.436-26.011,15.918-24.425,11.738.952-2.573.793-2.734-2.062-.482-1.586,1.287-9.2,7.879-16.812,14.793-12.688,11.738-14.115,12.542-20.777,12.542-6.344,0-15.861-2.412-24.108-6.271a48.559,48.559,0,0,0-5.075-2.09c-2.538-.643,7.454-21.868,12.53-26.692,2.538-2.251,8.089-4.663,14.433-5.949,12.688-2.734,20.936-6.914,27.914-14.15a24.6,24.6,0,0,1,11.1-6.914c5.234-.965,5.392-1.125,1.745-2.09-2.7-.8-5.393-3.859-8.406-9.487-2.538-4.824-3.648-8.361-2.7-8.361,2.062,0,9.833,5.306,14.909,9.969,5.234,4.985,6.027,3.216,1.427-3.055a50.093,50.093,0,0,0-11.26-10.291l-6.979-4.5,9.675.322c5.551.161,9.516.965,9.2,1.929-.317.8,2.062,2.734,5.234,4.181a54.77,54.77,0,0,1,11.578,7.879c3.172,2.894,5.868,4.341,5.868,3.216,0-1.608-15.86-19.939-19.825-22.833-.952-.643-.317-2.09,1.586-3.537,3.014-2.412,8.882-3.377,15.861-2.894,1.744.16,5.075.322,7.454.482,5.234.322,7.772,5.949,3.807,8.2-2.7,1.608-3.172,8.683-.952,15.758.952,3.216,1.269,2.412,1.428-4.181l.159-8.2,12.688-10.13c6.979-5.628,12.688-10.452,12.688-10.934,0-.8-6.661,3.377-13.8,8.683l-4.917,3.859-3.489-5.628c-4.124-6.753-2.221-12.06,4.123-12.06,2.7,0,4.441-1.126,4.917-3.055a6.21,6.21,0,0,1,3.013-4.02c3.172-1.286,2.7-3.859-.952-4.985-4.441-1.447-3.965-3.537,1.269-4.824a23.089,23.089,0,0,0,8.247-4.02l3.965-3.216H267.564l6.5-4.824c3.648-2.734,6.661-5.628,6.661-6.593,0-.8-1.586-.482-3.489.8a13.332,13.332,0,0,1-6.661,2.572c-3.014,0-3.014,0,0-3.377l3.013-3.537-5.868,1.125c-6.661,1.287-8.089-.965-2.855-4.18,5.075-3.377,3.648-4.824-3.489-3.7l-6.661,1.125,2.855-4.181c2.7-4.181,2.7-4.341-.476-2.251-4.758,3.055-5.71.483-1.745-4.984,2.855-4.181,3.014-4.985.793-4.985-1.427,0-2.221.643-1.586,1.447.952,1.769-6.5,8.2-9.516,8.2-1.586,0-1.269-1.769.952-6.593,3.965-8.04,3.013-12.381-.952-4.663l-2.855,5.628-2.062-11.738c-1.11-6.593-2.22-12.22-2.7-12.542-.317-.482-1.586,3.859-2.7,9.326a92.173,92.173,0,0,1-3.014,12.06c-.634,1.286-3.172-2.09-6.5-8.361-5.234-9.969-8.882-12.381-7.454-4.663.317,2.09,0,3.859-.635,3.859-.793,0-1.427,1.769-1.427,4.02s-.476,4.02-.952,4.02a92.579,92.579,0,0,1-10.468-8.04c-5.234-4.5-10.151-8.04-10.944-8.04s0,2.894,1.745,6.432c3.965,7.879,3.965,8.522-.317,7.075-3.648-1.126-3.648-.965-.793,2.251,1.745,1.769,3.807,2.894,4.917,2.573a4.068,4.068,0,0,1,4.123,1.769c2.379,2.894,1.11,4.984-1.9,3.055a10.367,10.367,0,0,0-4.441-1.447c-1.269-.161-6.661-.8-11.9-1.447l-9.516-1.286,6.344,5.788,6.344,5.95-10.626-.965c-6.027-.643-10.785-.643-10.785-.161s2.7,2.251,6.027,4.02c4.758,2.734,5.234,3.216,2.379,3.377-2.062,0-3.648.643-3.648,1.447s1.586,2.09,3.648,2.734c3.331,1.126,3.331,1.126.317,2.412a28.485,28.485,0,0,1-8.089,1.287c-6.186.161-7.613,1.608-4.124,4.341,2.22,1.769,2.379,2.412.476,3.7-1.586.965-.952,1.769,2.379,3.055,5.234,1.769,4.441,2.251-9.2,5.146-5.075.964-9.2,2.412-9.2,2.894,0,1.286,11.419,5.146,15.067,5.146,1.428,0,2.062.643,1.586,1.608-.476.8-4.124,1.608-8.089,1.608-5.075,0-6.979.643-6.979,2.412,0,1.286.793,2.412,1.586,2.412.952,0,1.586,1.126,1.586,2.412q0,2.412,4.758,2.412c5.71,0,6.344,2.412.793,3.859-5.71,1.447-5.075,5.789.634,5.789,5.075,0,7.93,2.412,4.6,3.7q-1.9.965,1.427,1.929l3.331,1.125L164,281.611c-6.027,9-4.124,13.828,3.013,7.236,3.013-2.733,3.013-2.573,1.9,2.573-.793,3.859-.476,6.11,1.269,8.04,3.648,4.02,9.041,17.687,9.041,22.833,0,4.5-2.379,6.432-7.93,6.432-7.137,0-19.35,16.562-22.681,30.712-.793,3.055-2.7,4.663-7.137,5.949-7.613,2.412-13.8,7.718-16.336,13.989l-1.9,4.824-1.11-8.844c-.635-4.824-1.744-11.417-2.22-14.472l-1.11-5.788h8.723c4.758,0,9.358-.483,9.992-1.286.634-.643-1.427-3.7-4.6-6.593-6.978-6.11-7.454-7.236-2.22-7.236,8.089,0,5.234-2.894-4.6-4.824-5.71-1.125-10.309-2.251-10.309-2.733a29.843,29.843,0,0,1,4.758-4.824c6.344-5.306,6.027-7.557-.793-6.432-6.5,1.126-6.82,1.93,4.917-15.115a228.382,228.382,0,0,0,14.274-24.119l5.869-11.577-5.075-4.663c-6.186-5.467-7.771-5.306-12.371,2.09-7.137,11.256-9.516,13.668-11.737,11.417-1.11-.965-4.917-1.93-8.406-1.93-12.53.161-18.081,8.844-26.328,41.485-1.586,6.271-2.22,6.914-5.234,6.11-12.371-3.7-23.473-6.11-24.267-5.306-1.745,1.769,1.11,4.181,9.675,8.2,4.758,2.251,8.723,4.824,8.723,5.949,0,1.286,1.745,1.447,5.551.8,5.393-1.126,5.551-.965,3.648,2.09-1.11,1.93-2.538,3.377-3.014,3.377-.634,0-.793,1.286-.317,3.055.793,3.216-3.013,4.984-11.737,4.984-2.855,0-5.234.482-5.234,1.126a6.86,6.86,0,0,0,4.282,5.467c1.269.483-3.013,9.487-11.261,24.28-19.508,34.732-26.963,45.666-32.99,47.756-6.185,2.251-7.137,1.286-4.124-3.377,1.269-2.09,3.648-5.628,5.234-8.2,4.282-6.914-.634-4.02-7.454,4.342C3.172,430.507,0,436.778,0,443.692c0,9.808,9.516,23.315,16.336,23.315,2.062,0,6.185,1.769,9.2,4.02l5.393,4.181.476-7.558.476-7.4,4.124,3.7,4.124,3.859-.952-7.718c-1.11-8.2-.952-8.522,3.965-5.789,3.172,1.769,3.172,1.447,2.22-5.628-1.269-8.04-.952-8.361,3.807-5.467,4.124,2.734,4.758,1.608,3.172-6.754-1.586-9-.793-10.452,4.282-7.075l4.124,2.572-1.11-7.879c-.952-7.4-.476-8.844,5.71-19.778l6.661-11.738,1.9,10.291A113.285,113.285,0,0,0,81.522,425.2c3.172,6.592,5.71,14.471,5.71,17.687,0,6.753.159,7.075,10.785,15.919,8.089,6.592,8.882,6.914,15.7,5.949,7.454-.965,21.094-7.879,21.094-10.613,0-2.894,7.3-6.271,17.129-7.879,20.3-3.377,32.355-11.738,42.506-30.229,5.551-9.809,8.564-12.7,11.1-10.13a32,32,0,0,0,7.3,3.055c5.392,1.769,10.626,6.753,14.75,13.668,1.427,2.573,2.379,2.573,13.481-1.126,12.054-4.02,36.8-7.557,53.608-7.557a138.745,138.745,0,0,1,25.535,4.02c9.04,2.251,16.654,3.859,16.812,3.7.159-.322,2.7-7.236,5.551-15.276,3.648-10.612,4.917-16.723,4.441-20.9-.634-4.663,0-7.4,2.855-11.738,4.6-6.593,4.6-9.326.634-20.9l-2.855-8.683,4.282-4.984a108.308,108.308,0,0,0,9.675-15.6l5.393-10.612-2.062-12.542-2.062-12.381,7.3-6.271a63.021,63.021,0,0,0,11.1-13.024c4.758-8.2,10.468-27.013,10.468-33.928,0-4.181,1.9-6.914,11.9-16.24,7.613-7.236,11.9-12.542,11.9-14.793,0-2.412,4.124-6.271,15.067-14.15,8.248-5.949,15.543-11.577,16.336-12.7,4.282-5.788,6.661-17.366,6.82-33.124,0-9.326.634-18.331,1.427-20.1.793-1.929,1.427-2.412,1.427-.965.159,1.447.635,1.769,1.428.8.793-.8.952-8.361.317-16.723-.793-11.9-1.11-13.346-1.427-6.432-.318,7.718-.635,8.361-2.062,4.824-.793-2.251-1.269-8.683-.793-14.311.634-8.361.475-9.808-.952-7.235-1.11,1.608-2.221,10.291-2.7,19.135l-.793,16.079-1.9-8.844A141.833,141.833,0,0,1,445.2,90.1c-.317-6.271-1.269-11.416-2.062-11.738-1.744-.482-8.089,9.165-9.516,14.632a9.463,9.463,0,0,1-2.537,5.145c-2.221,1.447.317-13.346,3.806-21.707,2.7-6.432,3.172-6.914,7.772-5.949,6.186,1.286,18.557,9.969,20.619,14.471a16.7,16.7,0,0,0,6.662,6.11c14.274,7.075,21.729,11.1,21.729,11.738,0,.482-4.758-.965-10.468-3.216-5.868-2.251-10.626-4.02-10.785-4.02s2.379,5.628,5.551,12.381c3.33,6.914,5.71,12.864,5.234,13.185-1.428,1.447-5.71-4.181-10.151-13.346-3.807-8.04-4.6-8.843-3.648-4.18,1.269,6.753,11.1,22.511,14.116,22.511,3.331,0,2.7-5.306-1.745-15.275-3.331-7.879-3.489-9-1.11-8.2,22.522,6.593,23.949,3.216,3.648-8.2-5.71-3.216-10.785-6.11-11.1-6.271-.317-.321.634-1.768,2.22-3.216,3.489-3.7,8.724-15.919,8.724-20.742A47.407,47.407,0,0,0,479.776,53.6c-3.013-8.361-2.22-11.095,2.855-11.095A8.593,8.593,0,0,0,488.5,40.1c1.586-2.09,1.586-3.055-.475-5.306-2.062-2.412-2.221-3.377-.635-4.985,1.11-1.286,1.269-2.412.317-2.734-7.454-3.055-9.357-4.985-9.516-9.487,0-3.7-.793-4.985-3.489-5.306-2.379-.322-3.648-1.769-3.965-4.824-.317-3.377-1.586-4.5-6.027-5.306C455.985.381,446.787-.423,443.773.22Zm18.4,3.7c5.075,1.93,5.233,5.306.476,7.879-2.7,1.447-4.758,1.447-8.089.321-5.868-2.412-5.868-2.412-2.855,2.894,2.221,4.02,2.855,4.341,4.282,2.251,1.269-1.769,4.441-2.412,10.31-2.251,9.675.161,10.944.8,8.565,4.663-2.062,3.216-10.309,4.341-14.592,2.09-2.7-1.447-2.855-1.125-2.22,2.251.317,2.412,1.427,3.538,2.379,2.894,3.014-1.929,15.861-1.608,20.777.483l4.6,1.929-3.648,1.93c-3.489,1.929-9.2,1.608-14.433-.643-2.062-.965-2.538-.322-1.745,3.055.476,2.573,1.269,3.538,1.9,2.412s2.7-1.447,5.234-.8c3.965,1.125,4.124,1.447,3.172,9a25.183,25.183,0,0,0,1.745,13.989c2.379,5.467,2.538,6.592.158,13.024a36.766,36.766,0,0,1-6.661,11.577l-4.441,4.342-2.7-4.824a38.277,38.277,0,0,0-9.675-9c-5.71-3.537-7.93-6.432-12.688-17.205C436,43.152,435.05,39.293,437.588,39.293c2.062,0,8.089,13.828,8.089,18.492,0,2.412.635,3.859,1.427,3.377,1.586-1.125.158-8.844-3.331-17.205a75.387,75.387,0,0,0-9.833-14.15c-7.3-8.2-9.2-13.024-5.234-13.024,2.855,0,16.971,9.165,16.971,11.1,0,.8,3.965,4.342,8.723,7.718,10.468,7.4,12.688,12.059,11.261,24.28-.635,5.628-.476,8.522.476,7.558.793-.965,1.744-6.592,2.062-12.7l.634-10.934L461.7,38.168c-4.124-3.055-9.992-8.2-13.481-11.256-5.868-5.628-6.027-6.11-5.234-13.668a50.718,50.718,0,0,1,1.9-9.326C446.152,1.828,456.937,1.828,462.171,3.918ZM486.12,37.846a3.384,3.384,0,0,1-2.7,2.734c-2.855.483-3.965-2.894-1.744-5.146C483.266,33.826,486.12,35.273,486.12,37.846Zm-44.25,54.67-2.221,5.467-.159-5.789c-.159-6.271,1.11-8.844,3.331-6.593C443.615,86.406,443.3,89.461,441.87,92.516Zm4.441,77.825c-2.7,6.11-14.274,16.723-25.535,23.958-6.344,3.859-6.82,4.02-6.82,1.125,0-1.929,2.538-4.663,6.979-7.235,7.613-4.5,21.887-20.421,25.059-27.657l1.9-4.663.634,4.341a21.41,21.41,0,0,1-2.22,10.13ZM229.182,198.319c.793,2.734.634,3.377-.793,2.573-1.745-1.125-3.331-4.663-5.392-12.059-1.11-3.7-.952-3.537,1.9.8a39.878,39.878,0,0,1,4.282,8.683Zm10.309-4.5c0,4.984-.635,7.718-1.586,7.075-1.745-1.125-2.062-8.683-.634-12.7C238.857,183.848,239.492,185.295,239.492,193.817Zm-26.963,7.4c0,4.02-3.014,2.09-7.93-4.985-6.5-9.808-6.027-10.934,1.586-3.377C209.674,196.229,212.529,200.088,212.529,201.213Zm197.62,7.557c-9.2,7.075-19.984,19.456-19.984,23.154,0,2.09-2.22,9.165-4.917,15.6-7.137,17.526-19.508,27.817-25.218,20.9-2.855-3.377-.476-10.934,4.917-16.24,6.5-6.271,15.86-19.3,16.336-22.672a4.763,4.763,0,0,1,2.538-3.377c1.427-.482,1.745.161,1.11,1.929-2.379,6.11,2.221,1.93,6.344-5.949,3.014-5.628,5.393-8.2,7.137-7.879,3.33.482,10.785-10.13,10.944-15.758,0-3.859.158-3.7,2.7,1.447C414.748,205.233,414.748,205.233,410.149,208.771Zm-204.916-3.859c.952.965.317,1.93-1.427,2.573-2.855,1.125-13.481-3.537-13.481-5.949C190.324,200.088,203.33,202.982,205.233,204.912Zm30.135,5.628a12.527,12.527,0,0,0,6.027,2.412c2.538,0,2.7.482,1.269,3.216-1.745,3.216.476,4.824,2.379,1.608.952-1.447,1.9-.965,7.772,4.341,1.269,1.125,1.9,4.341,1.427,8.522-.317,3.7.159,7.557,1.11,8.683,1.269,1.608.317,2.412-4.282,3.216a104.111,104.111,0,0,1-12.371.965c-5.551,0-6.82.8-10.785,6.432-5.075,7.236-5.551,7.4-15.7,4.181-7.137-2.09-20.777-10.452-17.922-10.773.952-.161,3.807-.321,6.344-.482,3.489-.161,4.917-.965,5.234-3.537a6.469,6.469,0,0,0-2.062-5.467,8.137,8.137,0,0,1,0-11.256,6.949,6.949,0,0,0,2.379-3.859c0-2.573,8.723-9,12.054-9,2.538,0,2.538.322-.159,3.216q-4.758,5.306,2.855,1.447c3.013-1.447,3.013-1.286-.476,1.769l-3.965,3.537,3.965-1.125a22.346,22.346,0,0,1,6.82-.965c1.427,0,2.7-.8,2.7-1.769,0-.8,1.11-1.125,2.537-.643,1.586.643,2.221.161,1.9-.965-.476-1.125-3.013-2.251-5.71-2.573-2.855-.322-4.758-1.286-4.282-2.09C225.852,207.324,231.878,207.967,235.368,210.54Zm-44.409,1.769c2.7.965,1.586,5.467-1.428,5.467a9.746,9.746,0,0,1-4.758-3.216c-2.855-3.055-2.7-3.216.476-3.216A21.221,21.221,0,0,1,190.959,212.308Zm69.151.482c0,.482-1.427,1.93-3.331,3.055-2.538,1.608-3.807,1.769-5.551.161-1.745-1.447-1.9-2.251-.476-3.055C252.973,211.5,260.11,211.344,260.11,212.791Zm7.137,6.271a67.85,67.85,0,0,0-6.027,5.146l-4.6,4.02.634-4.02c.317-2.894,1.745-4.342,5.234-4.985,2.7-.643,5.075-1.125,5.551-1.286C268.357,217.936,268.04,218.258,267.247,219.062Zm-81.681,8.04a8.25,8.25,0,0,1-.951,4.02c-.952.965-13.323-4.663-13.323-6.11,0-.482,3.172-.8,7.137-.8C184.3,224.207,185.566,224.69,185.566,227.1Zm79.3,1.125a6.8,6.8,0,0,1-3.489,2.412c-.951,0-.793-1.126.317-2.412a6.8,6.8,0,0,1,3.489-2.412C266.137,225.815,265.978,226.941,264.868,228.227Zm-3.965,7.236c.476.8-.158,1.608-1.427,1.608-1.427,0-2.537-.8-2.537-1.608a1.5,1.5,0,0,1,.37-1.117,1.456,1.456,0,0,1,1.057-.491A3.009,3.009,0,0,1,260.9,235.463Zm-79.143,5.789a17.067,17.067,0,0,0-.952,4.181c0,2.251-14.75.8-21.412-2.09l-4.758-1.929,5.551-1.126a101.359,101.359,0,0,1,14.116-1.447C181.443,238.679,182.553,239.161,181.76,241.251Zm84.853.643c4.124,2.412,3.806,4.341-.952,4.341-2.855,0-3.965-.8-3.965-2.894C261.7,239.8,262.33,239.643,266.613,241.895Zm-70.261,8.361a6.718,6.718,0,0,1,1.9,4.02c0,3.377-3.806,2.251-6.82-1.93-2.7-3.859-2.7-4.02.158-4.02a7.423,7.423,0,0,1,4.758,1.929Zm-23.473,1.126c0,1.929-3.806,3.216-7.3,2.573-1.745-.322-4.124-.643-5.393-.965-1.269-.161.476-.8,3.965-1.447s6.82-1.287,7.613-1.447a1.126,1.126,0,0,1,.839.392A1.157,1.157,0,0,1,172.878,251.382Zm9.992,8.04c.793,3.377-.476,4.02-13.957,5.949-8.882,1.126-8.723.482,1.11-4.985C178.429,255.723,181.76,255.4,182.87,259.421Zm-46.471,9a2.49,2.49,0,0,1-2.538,2.412c-2.221,0-2.221-.482-.635-2.412a9.643,9.643,0,0,1,2.538-2.412C136.082,266.014,136.4,267.139,136.4,268.426Zm49.167,1.125c-.159,2.09-17.288,14.793-18.4,13.668-.952-.965,14.75-15.6,16.812-15.6A1.922,1.922,0,0,1,185.566,269.551Zm-53.925,4.5c0,.8-.317,1.608-.634,1.608-.476,0-1.269-.8-1.745-1.608-.476-.965-.159-1.608.634-1.608a1.617,1.617,0,0,1,1.211.426A1.663,1.663,0,0,1,131.641,274.053Zm58.049,5.628c2.062,1.929,1.9,2.573-1.269,4.181a35.573,35.573,0,0,0-7.454,5.306L177,292.545l2.379-4.02C187.469,275.34,186.359,276.3,189.69,279.682Zm-77.4,1.125c1.428,1.447.952,3.216-2.379,7.4l-4.124,5.628,3.648,10.612c1.9,5.789,3.331,12.06,3.013,13.828-.793,3.7-11.737,9.648-20.777,11.417-5.868.965-6.027.8-6.185-3.537,0-4.181-.159-4.341-1.586-1.447-.952,2.251-1.11,1.126-.476-4.02a31.622,31.622,0,0,1,3.013-10.452,28.027,28.027,0,0,0,3.013-8.522c.635-2.734,1.9-5.467,2.7-5.949a4.844,4.844,0,0,0,1.427-3.538c0-1.286,2.22-4.5,4.758-6.914,4.124-4.02,6.5-5.306,11.261-6.271a5.557,5.557,0,0,1,2.7,1.769Zm19.033.964c.317,1.126-.317,1.608-1.9.965-1.427-.482-2.538-1.769-2.538-2.573C126.883,278.073,130.531,279.36,131.324,281.771Zm-4.441,8.361c0,.8-.317,1.608-.634,1.608-.476,0-1.269-.8-1.745-1.608-.476-.965-.159-1.608.634-1.608a1.618,1.618,0,0,1,1.211.426A1.664,1.664,0,0,1,126.883,290.133Zm72.958,8.2c3.965,7.718,4.6,10.291,3.013,12.06-.951,1.286-2.062,2.09-2.379,1.929-.793-.965-6.82-23.8-6.186-23.8C194.765,288.525,197.3,292.866,199.841,298.334Zm162.727,2.734,1.745,10.612-6.186,12.382a103.629,103.629,0,0,1-9.516,15.919,7.282,7.282,0,0,0-2.22,6.914c4.441,17.527,4.758,20.26,2.22,23.155-4.917,5.789-6.186,9.648-4.282,13.828,1.427,3.377.952,6.271-2.379,16.723-5.393,16.24-6.344,17.848-9.992,15.6-1.745-1.126-3.331-4.824-3.965-9.487a22.852,22.852,0,0,0-5.71-12.7c-5.234-5.788-5.075-10.13.635-11.577,4.282-1.125,4.758-4.181,1.269-11.095-2.22-4.663-2.22-3.7,0,3.537.952,2.894.317,4.02-2.7,5.146-5.71,2.251-6.661,9.487-1.9,14.632,5.075,5.628,7.137,10.291,7.137,15.758v4.663l-6.979-1.608c-4.758-1.125-7.613-2.894-9.357-5.789-2.379-4.181-10.627-12.7-10.627-11.095a46.219,46.219,0,0,0,4.758,6.914,34.488,34.488,0,0,1,4.758,7.075c0,.482-6.5.8-14.433.482-13.005-.482-34.734,1.447-43.616,3.859a3.7,3.7,0,0,1-4.517-1.962,3.8,3.8,0,0,1,1.345-4.792c3.648-2.734,3.013-4.181-.793-2.09-2.538,1.286-3.172,2.734-2.538,6.11.793,3.859.158,4.5-6.5,7.4-3.965,1.769-7.771,3.377-8.247,3.7-.634.161-1.9-1.447-2.855-3.7-1.586-3.377-1.427-4.02.634-4.02,1.9,0,2.379-.965,1.586-3.859-.476-2.09.476-8.683,2.22-14.472,2.7-8.683,3.965-10.612,6.662-10.612,5.075,0,16.178,7.236,21.729,13.989,5.393,6.593,6.344,5.467,2.379-2.573-1.745-3.377-2.062-5.788-1.11-6.753s9.992-1.447,21.729-1.125c10.944.322,19.984.161,19.984-.322,0-2.09-11.1-4.824-19.191-4.824a27.863,27.863,0,0,1-14.116-3.216c-3.013-1.769-8.247-4.5-11.578-5.95-6.5-2.894-6.661-4.5-.952-14.632,3.172-5.467,3.965-11.577,1.586-11.577-2.7,0-11.9,7.4-15.861,12.864-2.22,3.055-2.855,4.663-1.269,3.377,3.331-2.734,3.331-2.09.159,5.467a22.793,22.793,0,0,0-1.745,9.165c.634,2.412-.159,2.894-6.027,2.894a49.6,49.6,0,0,0-13.482,2.412c-9.2,3.216-11.1,3.055-11.1-1.286,0-8.844,16.653-25.406,27.6-27.5,3.172-.643,5.71-1.769,5.71-2.412,0-.8,5.234-7.075,11.42-13.989,6.344-7.075,9.833-11.255,7.772-9.487l-3.807,3.216,1.745-3.537a45.6,45.6,0,0,1,8.406-9c6.5-5.789,8.882-6.271,17.605-3.7,5.71,1.608,9.358-.643,15.543-9.809,4.758-7.075,16.336-16.562,20.3-16.562,2.062,0,6.185,6.432,7.93,13.024l1.586,5.467.317-4.824a55.225,55.225,0,0,0,.159-6.914c-.317-2.573,2.22-2.412,4.441.161,2.538,3.216,4.282,13.185,2.062,11.738-2.7-1.608-2.379-.8,2.22,10.934,4.917,12.06,4.282,17.848-2.22,20.421a15.788,15.788,0,0,0-5.393,3.377c-.793,1.447-1.745,1.286-3.489-.322-1.428-1.125-3.014-1.608-3.489-1.125-1.586,1.447,2.379,7.236,5.71,8.361,2.855.965,3.172,2.09,2.538,16.562-.476,9.487-.159,14.311.634,12.381a19.777,19.777,0,0,0,1.427-6.754,30.1,30.1,0,0,1,2.062-8.04,36.934,36.934,0,0,0,1.427-11.9c-.317-6.11.317-8.2,3.648-11.9,4.282-4.663,4.441-9.648.793-19.778-.952-2.573-.476-5.467,1.745-9.969a32.565,32.565,0,0,0,3.172-11.9c0-4.5.952-6.11,5.234-8.683,2.7-1.608,5.392-2.734,5.868-2.412C360.506,290.133,361.616,295.118,362.568,301.067Zm-172.244-8.683c0,1.287,2.062,7.558,4.758,13.989,2.538,6.432,4.282,12.22,3.807,13.024-1.745,2.894-3.648.965-5.868-6.432-3.648-11.416-5.71-22.833-4.124-22.833C189.69,290.133,190.324,291.1,190.324,292.384Zm-.159,20.582c2.22,7.236,2.379,9.326.793,9.969-2.379.965-3.172-1.125-5.393-15.115-1.9-12.7-1.745-17.205.317-9.648C186.677,301.228,188.58,307.981,190.166,312.966Zm-6.344-2.412c3.648,14.311,3.807,14.954,1.269,14.954-1.428,0-2.538-2.412-3.331-7.4C179.856,303.962,180.967,299.781,183.822,310.554Zm-108.8,16.883c3.489,1.769,5.869,3.538,5.393,4.02-1.427,1.447-18.081-4.181-20.3-6.914-1.9-2.412-1.586-2.573,3.331-1.447a54.167,54.167,0,0,1,11.578,4.341Zm39.81-.643c-1.9,1.447-6.82,5.146-10.944,8.2L96.114,340.3l3.965,3.055c4.441,3.537,3.014,3.859-4.282,1.126-5.551-1.93-8.089-5.628-5.551-8.2a103.683,103.683,0,0,1,12.371-6.914C114.512,323.417,120.38,322.131,114.829,326.794ZM116.1,339.98a32.011,32.011,0,0,1,9.357,4.663c3.648,2.894,3.648,3.055-5.392,1.608a64.186,64.186,0,0,0-10.15-1.125c-1.9.482-8.406-3.538-8.406-5.146,0-2.09,7.137-2.09,14.592,0Zm-37.589,9.809c1.427,2.251.952,2.573-5.868,3.859-6.661,1.287-8.089-.965-2.379-3.7,4.6-2.251,6.979-2.251,8.248-.161Zm38.858-.161c1.9,1.286,1.745,1.608-1.11,1.608a6.06,6.06,0,0,1-4.441-1.608C110.547,347.537,114.195,347.537,117.367,349.627Zm-9.04,3.216c7.3,5.788,9.833,16.079,9.516,37.465-.159,14.633-.793,19.3-2.7,21.386a7.754,7.754,0,0,0-2.538,4.5,9.065,9.065,0,0,1-3.331,4.984c-2.7,2.573-3.965,2.734-7.772,1.287-4.282-1.608-4.441-1.447-3.331,1.769,1.745,4.5,6.027,5.146,12.054,1.93,3.648-2.09,5.393-4.5,6.82-9.969,1.9-7.075,5.075-8.361,5.075-2.09,0,1.608.793,3.055,1.586,3.055.952,0,1.586-4.5,1.586-10.13a134.46,134.46,0,0,1,1.586-19.617c1.269-7.879,2.538-10.613,6.979-14.793,7.93-7.557,14.274-8.04,30.769-2.894,14.592,4.5,18.081,6.592,15.226,8.522-.952.643-3.648,5.467-6.027,10.613-5.075,11.577-25.853,33.284-34.576,36.179a20.885,20.885,0,0,0-8.882,6.432c-3.807,5.145-19.667,12.22-24.584,10.773-3.331-.8-7.454.322-7.454,2.251,0,1.125,9.04,5.467,15.226,7.236,4.6,1.286,17.288-9.487,20.3-17.205,2.062-4.824,3.648-6.271,10.309-8.522a51.89,51.89,0,0,0,13.8-7.4c4.758-3.859,7.3-4.663,14.116-4.663s8.723.643,12.371,4.5l4.282,4.5-6.82,6.593a70.007,70.007,0,0,1-9.834,8.2c-3.489,1.769-18.715,5.789-27.914,7.4a26.021,26.021,0,0,0-10.309,5.146c-6.344,5.628-22.363,13.346-25.853,12.381-1.586-.482-6.027-4.02-9.833-7.879L91.2,447.551l-.635-15.436c-.317-9.809-.952-14.632-1.9-13.185A18.593,18.593,0,0,0,87.073,426c-.159,4.341-.634,3.7-4.916-5.306-6.027-12.863-6.979-21.225-4.441-38.752,2.221-14.15,6.186-25.406,10.468-29.908C91.832,348.5,103.409,348.823,108.326,352.843Zm-29.659,5.949a6.409,6.409,0,0,1-1.744,5.306,6.9,6.9,0,0,0-2.379,3.538c0,2.412-27.914,53.223-37.589,68.659-4.758,7.4-8.247,13.668-7.93,14.15.793.8,23.315-33.928,23.315-36.179,0-.8,2.062-4.181,4.6-7.4a140.556,140.556,0,0,0,11.419-19.135c7.772-15.6,7.772-15.6,7.772-10.613,0,2.09-5.868,13.507-13.164,25.245C55.828,414.106,48.691,426,47.264,428.9,41.4,439.994,30.61,453.018,28.549,451.732c-.793-.482-2.7.965-4.441,3.216a21.96,21.96,0,0,1-7.613,5.628c-4.124,1.608-4.917,1.286-8.089-2.412-6.027-7.075-3.648-24.923,3.172-24.923a25.066,25.066,0,0,0,6.344-2.251c5.551-3.055,5.392-1.447-.476,5.467-4.917,5.949-5.71,8.04-3.172,8.04.793,0,5.234-5.628,9.675-12.542a176.421,176.421,0,0,1,11.578-15.6c1.9-1.769,9.833-16.08,17.6-31.677,12.213-24.28,14.909-28.621,18.24-29.1C77.24,354.612,78.191,355.094,78.667,358.792Zm135.606,43.254c3.331,3.538,3.331,3.859.635,3.859-2.855,0-10.309-5.789-10.309-8.2,0-2.251,6.027.483,9.675,4.342Z" transform="translate(0)" fill="#f3d400"/>
      <path id="Path_7" data-name="Path 7" d="M0,3.725C0,6.943.339,7.112,1.693,5.08c2.2-3.217,2.2-5.08,0-5.08C.847,0,0,1.693,0,3.725Z" transform="translate(237.803 214.411)" fill="#f3d400"/>
      <path id="Path_8" data-name="Path 8" d="M3.306,1.4C-2.451,3.773-.25,4.789,6.523,2.926c3.556-1.016,6.6-1.016,8.3,0,2.371,1.355,2.2,1.863-1.016,2.709C11.6,6.143,9.91,7.5,9.91,8.345S11.6,9.361,13.8,8.683c4.572-1.355,4.064-.847,4.911-4.911C19.054.894,18.207.386,13.3.047A25.99,25.99,0,0,0,3.306,1.4Z" transform="translate(229.637 224.424)" fill="#f3d400"/>
      <path id="Path_9" data-name="Path 9" d="M.859.167C-1,2.03.181,4.062,4.245,5.924A6.56,6.56,0,0,1,8.479,11c0,1.693.847,3.048,1.693,3.048,1.016,0,1.693-1.355,1.693-3.048C11.865,7.956,2.552-1.357.859.167Z" transform="translate(209.021 229.806)" fill="#f3d400"/>
      <path id="Path_12" data-name="Path 12" d="M1.376.671C-1.672,1.518.191,2.026,8.488,2.7A47.787,47.787,0,0,1,27.962,8.122l8.128,4.572-4.233-4.4C26.437,2.534,9.843-1.7,1.376.671Z" transform="translate(287.528 326.028)" fill="#f3d400"/>
      <path id="Path_13" data-name="Path 13" d="M23.909,6.9c5.419,6.6,5.927,7.959,4.911,14.055C27.126,31.964,26.11,32.81,12.055,35.181,4.944,36.367-.475,37.721.033,38.229c.508.677,6.1,0,12.53-1.185C29.158,34,30.682,34.673,30.682,44.156c0,4.233.508,8.3,1.355,9.144.677.677,1.185-2.879,1.185-7.959s-.847-10.16-1.863-11.176C30,32.81,30,29.593,31.529,22.82l2.032-9.652-6.6-6.6C18.321-2.411,16.119-2.072,23.909,6.9Z" transform="translate(262.679 328.435)" fill="#f3d400"/>
      <path id="Path_14" data-name="Path 14" d="M21.714,1.984C25.609,13.5,25.778,13.33,14.094,13.33c-5.926,0-12.022.847-13.377,1.693-1.863,1.185-.17,1.693,5.926,1.693a59.7,59.7,0,0,1,15.24,2.54c3.556,1.355,6.943,2.032,7.451,1.524C30.351,19.764,24.424,2.831,22.222.63,21.037-.556,20.868-.048,21.714,1.984Z" transform="translate(294.74 344.209)" fill="#f3d400"/>
      <path id="Path_15" data-name="Path 15" d="M.9,2.986c-1.355,2.371-1.185,3.725.508,5.08s2.2.677,2.2-3.218C3.612-1.078,3.1-1.416.9,2.986Z" transform="translate(238.693 373.44)" fill="#f3d400"/>
      <path id="Path_18" data-name="Path 18" d="M.033,2.412c0,1.862.508,2.371,1.016,1.016A3.429,3.429,0,0,0,.88.211C.372-.467-.136.549.033,2.412Z" transform="translate(379.124 156.885)" fill="#f3d400"/>
      <path id="Path_19" data-name="Path 19" d="M104.36,2.878a115.934,115.934,0,0,1-13.547,9.991c-14.9,9.483-20.828,16.087-27.093,30.48L58.3,55.372,47.126,56.557c-14.9,1.524-30.311,5.588-35.9,9.652C6.994,69.257-1.472,84.158.221,85.851c.339.339,2.709-2.709,5.249-7.112C10.889,69.6,18.17,65.362,35.1,61.806c16.086-3.386,20.32-3.217,20.32.339,0,1.693,3.895-4.572,8.467-13.885,9.483-19.642,12.7-23.368,25.4-31.665C100.466,9.313,111.3,0,108.594,0A6.772,6.772,0,0,0,104.36,2.878Z" transform="translate(276.233 170.853)" fill="#f3d400"/>
      <path id="Path_22" data-name="Path 22" d="M14.9,2.31A69.322,69.322,0,0,0,3.043,7.39C.333,8.914-.852,9.93.672,9.591,2.2,9.083,9.647,7.051,17.1,5.019,24.717,2.988,30.983.955,30.983.617,30.983-.738,21.5.278,14.9,2.31Z" transform="translate(228.541 307.556)" fill="#f3d400"/>
      <path id="Path_23" data-name="Path 23" d="M26.968,1.123C20.533,2.477,6.14,9.42.721,13.992c-1.863,1.524,0,.847,4.233-1.524,9.313-5.08,23.876-9.483,32-9.652,4.911,0,5.419-.339,2.709-1.524C35.773-.4,34.927-.4,26.968,1.123Z" transform="translate(170.43 326.967)" fill="#f3d400"/>
      <path id="Path_24" data-name="Path 24" d="M.765,1.049A3.431,3.431,0,0,0,3.983.88C4.66.372,3.644-.136,1.781.033-.081.033-.589.541.765,1.049Z" transform="translate(103.382 335.236)" fill="#f3d400"/>
      <path id="Path_25" data-name="Path 25" d="M6.486,2.076C-.965,4.786-2.32,8.172,4.115,8a23.946,23.946,0,0,0,8.128-1.524c2.879-1.185,2.709-1.524-1.693-1.693L5.47,4.447l5.927-2.2C18.847-.633,14.275-.8,6.486,2.076Z" transform="translate(49.563 336.752)" fill="#f3d400"/>
      <path id="Path_26" data-name="Path 26" d="M0,1.55c0,1.863,2.371,1.863,8.467,0C12.192.365,12.023.2,6.435.026,2.879-.143,0,.534,0,1.55Z" transform="translate(100.651 341.616)" fill="#f3d400"/>
    </g>
  </g>
</svg>
