<svg xmlns="http://www.w3.org/2000/svg" width="746.734" height="255.589" viewBox="0 0 746.734 255.589">
  <g id="logo" transform="translate(-11.363 317.556)">
    <path id="Path_27" data-name="Path 27" d="M638.5-317.1c-3.9,1-6.6,2.4-8.9,4.9-1.5,1.8-4.9,13.2-13.1,44.3l-1.7,6.6-5.8.6c-16.6,1.8-29.5,12.2-42.3,34.2-3.4,5.8-4.7,7.3-4.7,5.6,0-5.4-2.6-10.7-7.7-16a69.679,69.679,0,0,1-5.3-5.8c0-.2.8-.3,1.8-.3,3.7,0,11.9-4.9,15.9-9.4,5-5.7,7.3-11.9,7.3-20.1,0-15.8-7.4-24.9-22.1-27-10.2-1.5-22.4,3.7-28.1,12-3.9,5.9-6.2,15.2-5.4,22.2.7,5.8,5,16.3,6.7,16.3,2,0,.7,1.8-2.2,3-4.1,1.8-8.4,6.4-11.6,12.5-2.5,4.8-2.6,4.9-3.5,2.5a23.291,23.291,0,0,0-10.1-11.2c-3.3-1.8-5.9-2.3-12.3-2.3-7.2,0-8.7.4-15.5,3.7a70.593,70.593,0,0,0-14.2,9.8l-6.7,6.2-2.6-2.1a15.627,15.627,0,0,0-6.6-2.7c-3.1-.5-3.9-1.2-4.4-3.3-1.2-5.2-1.7-6.7-3.8-9.8-2.4-3.4-10.6-10.6-14.7-12.8-7.6-4-15.3-3.6-20.9,1.1-2.5,2.2-3.8,5.1-7.7,17.3l-4.6,14.7-4.6,1.7a24.831,24.831,0,0,0-8,5.1l-3.4,3.5-4.1-3.3c-16.6-13.5-44.5-.9-61,27.7l-2.8,4.7-2.6-3.9a33.617,33.617,0,0,0-37-12.8c-18,5.4-32.8,21.6-49.5,54.2-3.3,6.3-3.5,3.9-.6-8,5.2-22,13.9-41.8,27.4-62,11.8-17.8,13.6-22.6,11.5-30.7-4.2-15.8-20.4-21-31.6-10-7.6,7.3-17.7,24.9-25.5,44.4-2.3,5.9-4.5,10.6-4.7,10.4a53.476,53.476,0,0,1-1.8-6.5c-1.9-8.5-4.5-13.2-9.9-17.9-8.1-7.1-17.2-10.2-24.7-8.2-8.4,2.3-10.6,6.9-15.7,33-1.7,8.5-3.6,17.3-4.4,19.5l-1.4,4-2.2-7a71.121,71.121,0,0,1-2.8-14.6c-.5-7-.4-7.9,2.1-11.5a16.607,16.607,0,0,0,1.2-15.8c-3.3-7.9-14.1-10.8-23.8-6.4-7.3,3.4-10.5,6.3-19,17.6-11.1,14.7-19.6,22.3-23.4,20.8-1.6-.6-.7-2.9,4.1-9.5a12.214,12.214,0,0,0,.5-13.8c-4.4-7.3-14.8-8.7-25.6-3.3-8.3,4-17.8,12.9-22.6,21.1-14.2,23.9-4,48.2,21.7,51.8,11.4,1.6,21.3-.6,29.3-6.6,2.3-1.8,3.3-2.1,3.7-1.1.2.7,2.3,8.5,4.5,17.3,5.9,23,6.3,31.3,2,47.9-3.6,14.4-3.5,18.4.8,22.9,5.7,6,15.9,7.5,24.1,3.5,9.3-4.5,21.6-20.2,33.8-43.4l5.8-11.2,5.2,10.7c8,16.5,17.2,24.8,29.5,26.6,8.6,1.3,17.6-3.4,20.9-11,1.1-2.4,2.6-9.2,3.5-15.2,2.1-14.4,1.9-13.9,5.1-10.9a11.9,11.9,0,0,0,3.4,2.6c.4,0,2,2.8,3.7,6.3A40.2,40.2,0,0,0,244.4-87c15.2,2.5,34.1-5.8,47.8-20.9l5.5-6.1,2.9,3.1c8.4,8.8,25,11.6,42,7,9.2-2.5,20.3-12.2,24.5-21.3l1.2-2.7,4,4.5a30.084,30.084,0,0,0,29.6,9.4c7-1.7,15.9-7.7,25-16.9l7.7-7.8,4.7,4.2c5.9,5.4,9.9,7.3,18,8.4,20.1,2.8,38.9-5.9,47.1-21.7l1.7-3.3,3,4a25.407,25.407,0,0,0,23.7,10.7c7.5-.9,14-4.7,22.7-13.1l7.2-7,3,3.1c5.4,5.5,11.7,7.9,20.8,7.9,6.9,0,8.7-.4,13-2.8a49.662,49.662,0,0,0,9-6.6l4-3.8,3,1.8a25.284,25.284,0,0,0,18.1,2.9c9.6-2,16.2-5.8,24.7-14.2l7.9-7.7,5.8,4.3c8.1,6,15.1,8,25.4,7.3,16.9-1.1,32.2-10.9,46.8-29.9,12.7-16.7,16.5-27.5,12.2-34.8-1.9-3.1-8.5-7-11.8-7-1.3,0-1.6-.5-1.1-1.7,4.1-10.8,2.3-22.9-4.4-30-3-3.2-10.1-7.8-14-9.1-4.6-1.6-15.8-1.5-21.4.2-10.6,3.2-24,14.3-33.3,27.6-4.9,7.1-6,8.3-5.1,5.7,1-2.7,6.4-35,7.2-42.8.9-8.6-1.3-13.8-8.9-21.5C655.8-315.3,646.4-318.9,638.5-317.1Zm12.1,6.7c4.9,2.4,12.9,9.8,14.8,13.8,3,6.3,2.2,13.1-6.5,58.1-2.7,14.3-5.2,26.9-5.5,28-1,3.5,4.3-4.9,10.2-16.2,3.1-5.9,7.5-13.5,9.7-16.8,5.7-8.4,17.2-20,23.7-23.9,13.6-8.2,27.5-7,37.2,3.1,4.5,4.6,5.8,7.9,5.8,14.3,0,13.2-14.1,34.9-29.5,45.5-5.7,4-6.5,5.2-4.1,6.1,3.7,1.4,12.5-6.3,19.4-17.1,5.7-9,10.8-14.2,14.3-15,3.7-.8,11.5,2.6,12.4,5.5,1.1,3.6-.3,8.2-4.7,15.6-13.4,22.4-30.8,36.7-48.1,39.6-11.5,1.9-22.3-2.3-30.4-11.7l-3.9-4.6-3.6,5.3c-8.1,12.1-20.5,20.7-31.3,21.6-6.6.5-11.3-1-15-4.8l-2.8-2.9-5.8,6c-3.3,3.4-7.7,6.8-10.6,8.1-11.1,4.9-23.8,1.1-29.8-8.9l-3.1-5-5.7,6.9c-6.3,7.5-14.4,14.3-19.4,16.4-4.7,2-12.7,1.7-17.1-.5-7.8-4-11.2-9.9-11.2-19.3v-4.7l-2.8,1.6c-2.2,1.3-3.3,3.2-5.1,8.7-5.5,17.6-17.9,26.1-38.1,26.1-7.5,0-10.4-.4-14-2.1a32.068,32.068,0,0,1-13-12.3l-1.5-2.9-7.3,8.4c-7.3,8.4-15.9,16-21.7,19.1-1.7.9-6.3,1.8-10.6,2.1-6.3.4-8.2.1-11.5-1.6-8-4.3-11.1-8.3-12.8-16.8l-1.1-5.6-2.6,2.1a8.856,8.856,0,0,0-3.2,5.5c-2,12.2-13.1,23.7-26.3,27-16.2,4.2-30.9,0-37.6-10.6-1.2-2.1-2.6-3.8-2.9-3.8-.4,0-2.6,2.5-5,5.6C278.7-99,258.1-89,242.3-92.9c-10.2-2.6-21.1-12.6-23.5-21.7-.7-2.6-1.9-4.6-2.9-4.9s-3.2-2.2-4.9-4.2c-3.5-3.9-3.5-6.4-.1-11.2,1-1.4,4.8-8.2,8.5-14.9,11.1-20.8,19.5-31.4,30.5-38.6,8.1-5.4,12.9-6.9,20.6-6.9,7.6,0,13.8,2.7,19.3,8.3,8.9,9.3,7.6,22.2-3.9,39.1-5,7.3-15.1,17.7-20.7,21.3-4.9,3-5.8,4.4-3.7,5.2,4.9,1.9,14.7-7.8,24.1-23.7,3.4-5.7,9.4-16.7,13.4-24.4,9.7-18.5,14.7-26.1,22.3-33.1,9.2-8.6,15.4-11.7,24.7-12.2,8.8-.5,12.4.8,16.4,6.1,3.8,5,4.3,10.6,1.5,15.6-2.4,4.4-8.5,8.1-13.2,8.1-1.7,0-2.7.5-2.7,1.4,0,2.2,12.1,19.9,13,18.9.4-.4,4.4-7.9,8.9-16.5,7.9-15.2,8.1-15.7,6.1-17.1-6-4.2-4.1-13,3.6-16.6a20.679,20.679,0,0,1,5.8-2.1c2.3,0,3.3-2,7.2-15.4,2.1-7.2,4.8-14.3,5.9-16,4.3-6.4,11.1-6,20.6,1.3,7.8,5.8,10.9,11,10.9,17.8v4.9h4.9c5,0,9.7,2.2,10.8,5.1.3.8-.2,4-1.1,7-1.6,4.9-2.2,5.7-5.9,7.3a43.362,43.362,0,0,1-8.9,2.5l-4.7.7-2,6.7c-2.7,8.8-8.3,34.2-7.7,34.8,1,1.1,12.2-15.1,17.7-25.7,14.7-28,18.8-34.2,28-42.3,8.4-7.4,14.1-10,22.9-10.5,8.9-.5,12.4.8,16.6,6.3,3.8,5,4.3,11,1.2,15.4-3.2,4.8-6.8,7.2-11.6,7.8-2.5.3-4.2,1.1-4.2,1.8,0,1.5,9.2,15.6,11.4,17.4,1.1.9,2.2-.7,6.1-9.6,2.6-6,5.8-14,7.2-17.8,6.5-17.9,10.4-23.1,19.6-25.6,4.9-1.3,10.2,1,17.5,7.6,6.7,6.1,8.2,9,8.2,16.4,0,5.9-1.6,19.7-2.7,23.6-1.4,5.2,7.3-7.1,12.8-18,10.8-21.2,20-32.5,31.4-38.3,3.8-1.9,7-2.7,13.2-3l8.3-.5.9-3.6c8-30.8,12.5-47,13.7-48.9C636.4-312.1,644.4-313.3,650.6-310.4Zm-92,18.3c12.7,5.8,13.9,26.6,2.2,37.8-4.5,4.4-10,6.5-16.9,6.4-12.5,0-19.9-7.1-20.2-19.6-.4-11,6.1-22,14.8-25C544.3-294.5,553.7-294.3,558.6-292.1Zm-320.7,38c5.4,3.7,7.5,11.9,4.9,19.2-.6,1.9-4.8,8.8-9.3,15.4-13.5,20.2-22,38.6-27.5,59.7-2.9,11.2-3.7,16.1-8.4,47.7-2.7,17.8-3.7,20.3-9.7,23.3-4.8,2.5-10.6,2.2-16.7-.8-9.7-4.8-16.9-15.9-23.3-35.8l-3.2-10-1.6,3.5c-11.8,26.4-24.1,47.1-33.9,56.8-6.6,6.7-12.6,8.9-19,7.1-8.4-2.2-10-7.4-6.2-19.9,5.2-17.2,4.8-26.5-2.5-55.5C79-153.2,77-162.5,77-164.1s-.2-2.9-.5-2.9a81.841,81.841,0,0,0-7.8,5.5c-8.9,6.9-15.2,8.9-25.3,8.3-12.9-.9-22.7-7.5-25.4-17.4-1.8-6.3-.7-15.9,2.6-23,4-8.5,16.1-20.4,23.8-23.3,9-3.3,14.3-2.5,17,2.8,1.8,3.5,1.4,5-3.1,10.9-3.8,5.1-4.2,8.8-1.2,12.6,2.5,3.2,5.5,2.9,13.2-1.2,4.9-2.6,8.3-6.3,20.1-21.5,7.5-9.7,12.8-14.1,18.8-15.8,4.6-1.2,9.6.1,12.4,3.2,2.6,2.9,2.5,9.6-.3,13.4-4.6,6.5-4,13.5,3.3,39.7,3.8,13.8,3.8,13.8,5.2,10.5,3.8-9.1,8.3-24.7,10.7-37.2,4.8-25.7,6.7-29.5,14.7-29.5a24.442,24.442,0,0,1,8.4,1.9c4.9,2.2,12,8.4,13.8,12,2.1,4,4.3,15.4,5.7,28.4.7,6.4,1.4,11.5,1.6,11.3.3-.2,2.7-7.1,5.4-15.2,9.7-28.9,21.1-51.6,30.9-61.4C226.2-257.2,232.4-257.9,237.9-254.1Zm261.5,50.3c-2.2,4.4-2.2,4.4-3.9,2.2-2-2.6-1.9-3.4.4-3.4a3.5,3.5,0,0,0,2.6-1C500.1-208.6,500.9-206.6,499.4-203.8ZM432-196.5c0,1.1-5.2,10.7-5.5,10.3-.9-.9,3-10.8,4.2-10.8C431.4-197,432-196.8,432-196.5Zm-69.2,16.8c-1.3,2.6-2.6,4.7-2.9,4.7-.7,0-4.3-5.1-3.7-5.3.2-.1,2.1-1.1,4.3-2.3a22.064,22.064,0,0,1,4.3-1.9A27.631,27.631,0,0,1,362.8-179.7Z"/>
    <path id="Path_28" data-name="Path 28" d="M639.4-306c-.6.6-4.4,13.9-8.5,29.6-6,23-7.7,28.3-8.9,27.8a27.1,27.1,0,0,0-15.7-.8c-13,3.4-23,14.7-34.9,39-3,6.1-6.9,12.7-8.8,14.7a50.468,50.468,0,0,0-6.1,8.4c-4.9,8.5-8.5,11.3-9.9,7.7-1-2.6-.6-8.3,1.4-21.9a174.454,174.454,0,0,0,2-18.5c0-5.5,0-5.5-6.5-11.6-3.6-3.4-7.4-6.4-8.4-6.7-1.1-.2-3.7.4-6,1.3-4.6,2.1-7.1,6.3-12.5,21.4-4.3,11.9-14.4,33.4-17,36.4l-2,2.2-3-5.5c-1.7-3-5.2-8.5-7.8-12.2-6.5-9.3-8-13.2-6.5-16.4,1-2,2.2-2.5,6.6-2.9,4.4-.5,5.8-1.1,8.2-3.8,3.4-3.8,3.6-6.5.9-10.9-6-9.9-20-6.8-33.9,7.5-6.8,6.9-8.8,10-18.8,28.7-12.1,22.7-24.3,40-28.8,41.1-6.6,1.7-7.5-2.2-4.1-17.9,3.2-14.3,8.6-34.9,9.5-35.9.4-.5,3.4-1.3,6.6-1.8,10.3-1.8,10.2-1.7,12-6.2,1.6-4,1.6-4.3-.1-5.5-2-1.4-2.7-1.5-10.1-.4l-5.2.7.6-6.5c.7-9.1-1.1-12.9-8.8-18.6-6.4-4.7-8.9-5.4-10.8-3.1-.7.8-3.2,8.1-5.7,16.2-2.4,8.1-4.8,15.2-5.3,15.7s-3.8,1.9-7.3,3.1l-6.3,2.1v3.9c0,3.5.3,4,3.2,5l3.2,1.1-10.2,19.8c-5.7,10.9-11.6,21.5-13.2,23.4l-2.8,3.6-2.6-5a98.178,98.178,0,0,0-6.6-10.4c-8.7-11.7-10.4-15.9-8-19.6,1.2-1.8,2.5-2.3,5.9-2.3a10.661,10.661,0,0,0,7.5-2.5c3.8-3.3,4.5-5.6,3.1-10-1.7-5.2-5.3-7.5-11.6-7.5-8,0-13.6,3.1-22.9,12.5-8.2,8.3-8.8,9.2-26,42a239,239,0,0,1-14.2,23.7,58.308,58.308,0,0,1-7.4,8.3c-8.3,7.7-15.9,9.6-20.4,5-3.7-3.6-3.3-6.9,1.2-9.6a77.187,77.187,0,0,0,28-31.6c6.1-13.1,3.9-23.3-6-28.5s-21.9-1.6-33.7,10.1c-7.8,7.7-12.8,14.9-20.1,28.7-2.8,5.4-6.5,12-8.2,14.7-2.1,3.4-2.7,5.4-2.3,7.2.7,2.9,4.9,4.4,7.1,2.5,1.3-1.1,1.5-.6,1.5,3.4,0,6.5,2.1,10.8,7.9,16.5,10.5,10.3,22.5,10.7,38.1,1.5,10.2-6.1,25.2-24,30.5-36.4,3.6-8.3,16.7-32.5,20.3-37.4l3.5-4.8,1.8,8.5c.9,4.8,2.4,10.8,3.2,13.4.9,2.6,1.8,6.2,2.2,7.9.6,2.9.4,3.2-2.6,3.8a44.756,44.756,0,0,1-6.3.6c-5.9,0-13.5,2.9-17.1,6.6-4.4,4.4-4.7,9.6-1,17.1,2.9,5.7,7,9.4,12.9,11.3,5.2,1.7,18.3.7,23.9-1.8,9.1-4,15.5-12.3,17.8-23.2.9-4.3,1.6-5.3,5-7.2,4.9-2.7,7.5-6.6,13.4-19.8,2.6-5.8,5.2-11,5.8-11.5.7-.7.7-.3.2,1-2.1,5.6-5.5,25.9-5.5,32.9,0,9.4,1.7,13,8,16.5,11.4,6.4,22.8.3,41.1-21.8a111.968,111.968,0,0,0,14.5-22.5c9.1-18,13.1-25.3,17.3-31l3.5-4.9,1.2,6.4c.7,3.5,2.4,10.4,3.8,15.4,3.6,12.4,3.7,12-3.6,12.3-19.4.9-27.8,9.7-21.9,22.8,4.5,10,13.2,14.2,26.3,13,15.6-1.4,25.9-10.6,28.9-26,.7-3.1,1.7-5.6,2.4-5.6,3.1,0,9.1-5.9,11.4-11.1,5.4-12.5,9.6-21,9.9-20.1.2.6-.8,6.9-2.2,14.1-4.1,20.8-3.3,29.5,3,35,2.8,2.5,4.3,3.1,8.3,3.1,5.2,0,9.4-2.2,16-8.3,4.7-4.5,15.7-18.2,18.9-23.6l2.7-4.6.7,6.9c.9,9.2,4.1,15.4,9.6,18.4a16.668,16.668,0,0,0,17.6-.2c4.4-2.6,12.8-11.8,14.9-16.4.6-1.2,1.3-2.2,1.6-2.2s2,2.1,3.6,4.6c5.9,8.9,12.6,10.5,23.2,5.5,9.7-4.6,17.8-14.1,26.2-30.9,1.7-3.4,3.2-6.2,3.4-6.2a39.5,39.5,0,0,1,.4,5.6c.2,6.5,3.3,12.4,8.9,17.4,16.8,14.7,41.9,4.1,61.6-26,8.7-13.5,9.6-17.2,4.2-18.3-3.3-.6-5.2,1.2-11.4,11.2-8.3,13.4-20.3,22.5-27.4,20.7-2.5-.6-6.6-5.7-6.6-8.3,0-.6,2.3-2.5,5.1-4.3,15.2-9.3,29.5-29.3,30.6-42.8.6-7.1-1.6-11.5-7.8-15.7-3.8-2.6-5.3-3-10.9-3-5.2,0-7.7.6-12.5,3-11.1,5.6-23.4,20.3-33.3,40-2.2,4.4-6.7,12.3-10,17.5-5.5,8.8-6.2,9.5-9.5,9.8-5,.4-5.2-1.3-2.2-15.4,4.6-21.9,12.6-65.8,13.1-72.9.6-6.6.5-7.2-2.4-11.1a43.651,43.651,0,0,0-6.6-6.9C647.7-306.5,641.1-307.8,639.4-306Zm78.9,56.5c1.3,3.9-.4,10-4.7,16.7-4.2,6.5-6.9,9.1-9.3,8.6-4.2-.8-1-13.3,6.4-25.1C713.6-254,716.8-254.1,718.3-249.5Zm-98.2,17.7c2.6,4.9.4,18.2-5.3,31.3-5.2,11.8-9.3,15.9-13.8,13.5-4.9-2.6-3-16.4,4.5-32.7C611.6-232.9,617.1-237.5,620.1-231.8Zm-347.3,57c3.5,3.5-.1,15.8-7,24.2-3.6,4.3-7.4,4.9-8.4,1.2-.9-3.6,5.7-19.3,10.4-24.9C269.6-176.3,271.1-176.5,272.8-174.8Zm195.7,15.5c-1.6,4.1-5.7,8.3-8,8.3-5.3,0-8.8-4.7-6.6-8.8,1.2-2.3,3.2-2.9,10.9-3.1l5.2-.1Zm-138,24c-2.2,5.5-6.1,8.6-9.8,7.9s-5.8-3.3-5.4-6.6c.3-3.3,3.9-5,11-5H332Z"/>
    <path id="Path_33" data-name="Path 33" d="M540.5-287.6c-4.2,1.8-8.2,6.8-9.6,11.9-1.5,5.8-.7,14.7,1.6,18,2.5,3.2,8.3,5.8,12.2,5.1,6-.9,7.4-1.5,10.8-4.6,5.3-4.5,6.9-8.3,6.9-15.9,0-7.3-2.3-12.5-6.5-14.6C552.7-289.4,544.3-289.3,540.5-287.6Z"/>
    <path id="Path_34" data-name="Path 34" d="M227.4-250.1c-12.1,7.3-34.7,61.4-41,97.6l-.7,4-2.3-5.2c-2.6-5.8-4.8-16.7-6.5-32.3-1.4-12.8-3.4-23.2-5.3-26.8-3-5.8-11.6-11.6-16.3-11-3.3.4-4.4,3.5-7.9,21.3-3.3,17.1-5.7,25.8-10.6,38.5-6.6,17.4-9.9,25-10.8,24.5-.4-.2-1-2.8-1.3-5.8-.8-6.3-3.6-17.7-8.3-34.2-1.9-6.6-3.8-15.5-4.1-19.8-.6-7.3-.4-8,2.6-14.1,2.7-5.2,3.1-6.8,2.2-8.4-1.7-3.1-4.5-3.5-9-1.2-4,2-7.5,5.8-20,21.8-7.2,9.3-15.5,15.5-22.8,17-6.6,1.4-9.8.6-13.3-3.5-3.9-4.4-4.1-10.4-.5-15.4,7.5-10.3,4.9-13.9-6.2-8.4-7,3.5-14.7,11.5-18.5,19.3-2.7,5.5-3.2,7.6-3.2,13.6,0,7.6,1.5,11.5,5.6,15.2,5.9,5.4,19.5,7.1,27.3,3.5,4.1-1.9,18.1-12.8,22.4-17.5,3.2-3.4,4.1-3.3,3.6.6-.7,5.5,1.3,17.4,6.2,36.7,4.3,16.9,4.7,19.7,4.7,30.1,0,9.6-.4,13.2-2.8,21.7-3.4,12.2-3.1,14.9,1.9,15.9,6.3,1.2,13-4.7,23.7-20.9,6.1-9.2,20.8-38.4,27.9-55.1l3.7-9,.7,6c2.1,18.1,9.7,40.2,17.4,50.3,5.6,7.4,14.9,11,19.7,7.6,3.2-2.2,4.1-5.5,6.9-26,6.7-49.1,13.7-69.2,35.5-102.5,10-15.1,11.3-19.2,8.3-24.9C234-251.3,231.1-252.4,227.4-250.1Z"/>
  </g>
</svg>
